<svg width="182" height="107" viewBox="0 0 182 107" fill="none" xmlns="http://www.w3.org/2000/svg">
<path d="M71.8938 2.20312H93.9016L58.9563 105H35.1906L0.315628 2.20312H22.3234L41.6594 63.375C42.7375 66.9844 43.8391 71.2031 44.9641 76.0312C46.1359 80.8125 46.8625 84.1406 47.1438 86.0156C47.6594 81.7031 49.4172 74.1562 52.4172 63.375L71.8938 2.20312ZM181.989 76.4531C181.989 85.7344 178.638 93.0469 171.934 98.3906C165.278 103.734 155.997 106.406 144.091 106.406C133.122 106.406 123.419 104.344 114.981 100.219V79.9688C121.919 83.0625 127.778 85.2422 132.559 86.5078C137.388 87.7734 141.794 88.4062 145.778 88.4062C150.559 88.4062 154.216 87.4922 156.747 85.6641C159.325 83.8359 160.614 81.1172 160.614 77.5078C160.614 75.4922 160.052 73.7109 158.927 72.1641C157.802 70.5703 156.138 69.0469 153.934 67.5938C151.778 66.1406 147.348 63.8203 140.645 60.6328C134.364 57.6797 129.653 54.8438 126.513 52.125C123.372 49.4062 120.864 46.2422 118.989 42.6328C117.114 39.0234 116.177 34.8047 116.177 29.9766C116.177 20.8828 119.247 13.7344 125.388 8.53125C131.575 3.32812 140.106 0.726562 150.981 0.726562C156.325 0.726562 161.411 1.35938 166.239 2.625C171.114 3.89062 176.2 5.67187 181.497 7.96875L174.466 24.9141C168.981 22.6641 164.434 21.0938 160.825 20.2031C157.263 19.3125 153.747 18.8672 150.278 18.8672C146.153 18.8672 142.989 19.8281 140.786 21.75C138.583 23.6719 137.481 26.1797 137.481 29.2734C137.481 31.1953 137.927 32.8828 138.817 34.3359C139.708 35.7422 141.114 37.125 143.036 38.4844C145.005 39.7969 149.622 42.1875 156.888 45.6562C166.497 50.25 173.083 54.8672 176.645 59.5078C180.208 64.1016 181.989 69.75 181.989 76.4531Z" fill="#BD0000"/>
</svg>
