<svg width="122" height="117" viewBox="0 0 122 117" fill="none" xmlns="http://www.w3.org/2000/svg">
<path d="M14.1184 45.3659C12.2625 46.4802 11.2458 48.043 11.0683 50.0541C10.8844 52.0547 11.5406 54.301 13.037 56.7932C16.1508 61.979 19.6537 63.4034 23.5457 61.0665C25.1788 60.0859 26.9115 58.49 28.7437 56.2789L31.2271 60.4149C29.7958 62.3564 27.9029 64.034 25.5487 65.4476C22.1657 67.4789 18.9636 68.0092 15.9424 67.0386C12.9148 66.0574 10.2485 63.6473 7.94343 59.8083C6.4916 57.3904 5.66136 55.0104 5.4527 52.6685C5.23768 50.3159 5.66232 48.1636 6.72663 46.2116C7.79517 44.2425 9.43766 42.5926 11.6541 41.2618C13.9129 39.9055 16.5103 39.089 19.4463 38.8122L20.2625 43.776C19.1446 43.8846 18.0532 44.0494 16.9883 44.2703C15.9234 44.4913 14.9668 44.8565 14.1184 45.3659ZM54.0813 32.0186C56.3927 35.8682 57.2148 39.4001 56.5476 42.6142C55.8804 45.8284 53.7652 48.5052 50.202 50.6447C46.6387 52.7843 43.2818 53.3931 40.1312 52.4714C36.9806 51.5496 34.2432 49.1533 31.919 45.2825C29.5948 41.4117 28.7759 37.8851 29.4622 34.7028C30.1527 31.5035 32.2849 28.8309 35.8588 26.685C39.4327 24.5391 42.7811 23.9281 45.9041 24.852C49.0377 25.7696 51.7634 28.1584 54.0813 32.0186ZM37.108 42.2101C38.6681 44.8083 40.3361 46.4688 42.1119 47.1916C43.8878 47.9144 45.7567 47.6868 47.7186 46.5088C51.653 44.1464 52.0506 40.3511 48.9113 35.1229C45.7657 29.884 42.2363 28.4394 38.3231 30.7891C36.3612 31.9671 35.2798 33.5182 35.0788 35.4424C34.8716 37.356 35.548 39.6118 37.108 42.2101ZM79.0069 32.9162L62.452 18.0325L62.3088 18.1184C64.739 21.7092 66.3266 24.1249 67.0716 25.3657L73.5666 36.1828L69.1603 38.8285L55.196 15.5719L61.9089 11.5412L78.0914 26.0208L78.1869 25.9635L73.3464 4.67365L80.0593 0.642931L94.0235 23.8996L89.4263 26.6599L82.8167 15.652C82.5047 15.1324 82.1502 14.53 81.7533 13.8449C81.3669 13.1535 80.3587 11.3061 78.7285 8.30268L78.5853 8.38865L83.5247 30.2035L79.0069 32.9162ZM70.2024 100.023L64.5871 103.395L54.1019 93.0689C53.7242 92.7041 52.9846 91.929 51.8832 90.7435C50.7861 89.541 50.0762 88.7192 49.7536 88.278C50.0338 88.8889 50.4288 89.9071 50.9384 91.3325C51.4416 92.7473 51.7866 93.7665 51.9735 94.3901L56.1562 108.457L50.5568 111.819L30.6591 92.125L35.5108 89.2118L46.1076 100.12C48.0345 102.152 49.6304 103.956 50.8952 105.534C50.5959 104.892 50.1787 103.872 49.6437 102.477C49.1129 101.064 48.7381 99.9471 48.5193 99.1262L44.0849 84.0636L48.7458 81.265L59.9567 92.2587C60.4554 92.7528 61.1759 93.5322 62.1181 94.5969C63.0604 95.6615 63.8477 96.5883 64.4802 97.3772C64.0895 96.4864 63.6416 95.3558 63.1362 93.9856C62.6245 92.6047 62.2349 91.4752 61.9673 90.597L57.304 76.1263L62.1557 73.2131L70.2024 100.023ZM82.3048 92.7561L68.3405 69.4995L73.2718 66.5385L87.2361 89.7952L82.3048 92.7561ZM116.98 71.9358L110.712 75.6991L90.0312 64.1803L89.888 64.2662C91.9553 67.2525 93.3868 69.4084 94.1828 70.734L100.754 81.6783L96.3479 84.3241L82.3836 61.0675L88.6034 57.3328L109.163 68.6863L109.275 68.6194C107.301 65.6925 105.938 63.6034 105.187 62.352L98.5773 51.3441L103.016 48.6792L116.98 71.9358Z" fill="white"/>
</svg>
