<svg width="121" height="88" viewBox="0 0 121 88" fill="none" xmlns="http://www.w3.org/2000/svg">
<path d="M26.4039 63.9824C28.7026 67.8108 29.371 71.3989 28.4089 74.7468C27.4575 78.0883 24.9244 80.9944 20.8097 83.4651L14.2241 87.4194L0.259798 64.1628L7.5613 59.7786C11.3579 57.499 14.9078 56.731 18.211 57.4745C21.5143 58.218 24.2453 60.3874 26.4039 63.9824ZM21.3581 67.1853C18.359 62.1903 14.6535 61.0173 10.2419 63.6663L7.61717 65.2423L16.7102 80.3861L18.8259 79.1158C23.5769 76.2631 24.421 72.2862 21.3581 67.1853ZM38.7635 55.0895L40.3542 54.1344C41.9131 53.1983 42.9078 52.2476 43.3381 51.2822C43.7684 50.3169 43.6493 49.2774 42.9807 48.1639C42.3185 47.061 41.4655 46.5055 40.4217 46.4973C39.3886 46.4828 38.0767 46.9531 36.4859 47.9083L34.9906 48.8061L38.7635 55.0895ZM41.1705 59.0982L46.5288 68.0222L41.5975 70.9832L27.6333 47.7266L34.4098 43.6576C37.5701 41.7601 40.2555 40.934 42.4661 41.1794C44.6703 41.4141 46.4761 42.7033 47.8833 45.047C48.7047 46.4151 49.0605 47.8607 48.9507 49.3839C48.8345 50.8965 48.2686 52.3689 47.2529 53.8012C53.8918 56.9281 58.2 58.9367 60.1774 59.8271L54.7052 63.1128L43.7952 57.5222L41.1705 59.0982ZM80.5993 47.5649L75.5892 43.0416L67.1106 48.1325L68.7483 54.6808L63.4352 57.8709L57.6219 29.5903L63.6508 25.9703L85.9124 44.3747L80.5993 47.5649ZM71.9287 39.6125C67.3579 35.5324 64.7743 33.2241 64.178 32.6875C63.5923 32.1447 63.1424 31.7078 62.8284 31.377C63.2935 32.9445 64.3067 36.9027 65.868 43.2516L71.9287 39.6125ZM114.765 27.0502L109.15 30.4219L98.6647 20.0962C98.287 19.7314 97.5475 18.9563 96.4461 17.7708C95.3489 16.5683 94.639 15.7465 94.3164 15.3054C94.5967 15.9162 94.9916 16.9344 95.5012 18.3598C96.0044 19.7746 96.3495 20.7938 96.5363 21.4175L100.719 35.4842L95.1196 38.8463L75.2219 19.1524L80.0736 16.2392L90.6704 27.1472C92.5973 29.1788 94.1932 30.9836 95.4581 32.5615C95.1587 31.9189 94.7415 30.8997 94.2065 29.5039C93.6757 28.0913 93.3009 26.9745 93.0821 26.1536L88.6477 11.0909L93.3086 8.29234L104.52 19.286C105.018 19.7802 105.739 20.5595 106.681 21.6242C107.623 22.6888 108.411 23.6156 109.043 24.4046C108.652 23.5137 108.204 22.3832 107.699 21.0129C107.187 19.632 106.798 18.5025 106.53 17.6243L101.867 3.15364L106.719 0.240443L114.765 27.0502Z" fill="white"/>
</svg>
