<svg width="205" height="167" viewBox="0 0 205 167" fill="none" xmlns="http://www.w3.org/2000/svg">
<path d="M11.7812 106.749L13.4038 105.774C14.9203 104.864 15.8767 103.885 16.2731 102.839C16.6631 101.783 16.5142 100.682 15.8265 99.5366C15.1325 98.3807 14.3017 97.718 13.3343 97.5486C12.3775 97.3728 11.2257 97.6893 9.87884 98.498L7.63589 99.8447L11.7812 106.749ZM20.7005 96.372C22.2032 98.8748 22.5678 101.26 21.7943 103.528C21.0313 105.79 19.2075 107.787 16.323 109.519L14.2073 110.789L19.1741 119.061L14.2428 122.022L0.278521 98.7652L7.70728 94.3047C10.5282 92.6109 13.0365 91.9344 15.2323 92.2752C17.4323 92.5991 19.255 93.9647 20.7005 96.372ZM37.9576 107.783L23.9933 84.5259L28.9246 81.5649L40.4437 100.749L49.8768 95.0852L52.3219 99.1575L37.9576 107.783ZM73.8733 86.2172L68.8632 81.6939L60.3845 86.7848L62.0223 93.333L56.7092 96.5232L50.8959 68.2426L56.9248 64.6226L79.1864 83.027L73.8733 86.2172ZM65.2027 78.2647C60.6318 74.1847 58.0483 71.8763 57.452 71.3398C56.8663 70.7969 56.4164 70.3601 56.1024 70.0292C56.5675 71.5968 57.5806 75.555 59.1419 81.9039L65.2027 78.2647ZM84.4107 61.2775L83.5125 48.7881L88.8255 45.5979L89.6399 64.4357L95.0747 73.487L90.1752 76.4288L84.8359 67.5366L68.4959 57.8047L73.8408 54.5954L84.4107 61.2775ZM122.369 57.0985L108.975 65.1409L95.0103 41.8843L108.404 33.8419L110.83 37.8824L102.368 42.9638L105.434 48.0701L113.308 43.3421L115.734 47.3826L107.86 52.1105L111.461 58.1076L119.923 53.0263L122.369 57.0985ZM127.66 36.326L129.251 35.3708C130.81 34.4348 131.804 33.4841 132.235 32.5187C132.665 31.5533 132.546 30.5139 131.877 29.4003C131.215 28.2974 130.362 27.7419 129.318 27.7338C128.285 27.7192 126.973 28.1896 125.383 29.1447L123.887 30.0425L127.66 36.326ZM130.067 40.3346L135.425 49.2587L130.494 52.2197L116.53 28.963L123.306 24.8941C126.467 22.9965 129.152 22.1704 131.363 22.4158C133.567 22.6506 135.373 23.9398 136.78 26.2835C137.601 27.6515 137.957 29.0971 137.847 30.6203C137.731 32.1329 137.165 33.6054 136.15 35.0376C142.788 38.1646 147.097 40.1732 149.074 41.0635L143.602 44.3492L132.692 38.7586L130.067 40.3346ZM177.51 23.9893L172.595 26.9407L164.514 13.483L163.234 11.2433L161.862 8.77757C161.536 10.0845 161.29 10.9607 161.125 11.4062L159.742 15.1584L155.595 13.6228L159.505 3.15874L163.546 0.732669L177.51 23.9893ZM111.688 124.166L106.072 127.537L95.5872 117.212C95.2094 116.847 94.4699 116.072 93.3685 114.886C92.2713 113.684 91.5614 112.862 91.2388 112.421C91.5191 113.032 91.914 114.05 92.4236 115.475C92.9268 116.89 93.2719 117.909 93.4588 118.533L97.6414 132.6L92.042 135.962L72.1443 116.268L76.9961 113.355L87.5928 124.263C89.5197 126.294 91.1156 128.099 92.3805 129.677C92.0811 129.034 91.664 128.015 91.1289 126.619C90.5981 125.207 90.2233 124.09 90.0045 123.269L85.5702 108.206L90.231 105.408L101.442 116.401C101.941 116.896 102.661 117.675 103.603 118.74C104.546 119.804 105.333 120.731 105.965 121.52C105.575 120.629 105.127 119.498 104.621 118.128C104.11 116.747 103.72 115.618 103.453 114.74L98.7892 100.269L103.641 97.3558L111.688 124.166ZM123.79 116.899L109.826 93.6422L114.757 90.6812L128.721 113.938L123.79 116.899ZM158.465 96.0785L152.197 99.8418L131.516 88.3229L131.373 88.4089C133.44 91.3952 134.872 93.5511 135.668 94.8767L142.239 105.821L137.833 108.467L123.869 85.2101L130.089 81.4755L150.649 92.8289L150.76 92.7621C148.786 89.8352 147.424 87.746 146.672 86.4947L140.063 75.4867L144.501 72.8219L158.465 96.0785Z" fill="white"/>
</svg>
